<svg data-name="Layer 1" xmlns="http://www.w3.org/2000/svg" viewBox="0 0 372.4 58.54"><title>logo-white</title><path d="M.4,2.6V29.8c3.1,19.9,24,28.1,24,28.1,22.2-9.6,23.5-28.1,23.5-28.1V2.6Z" fill="#fff"/><path d="M11.3,49.2h0A44.69,44.69,0,0,0,24.6,58a44.42,44.42,0,0,0,13.1-8.6h0A41.36,41.36,0,0,1,24.6,58,43.38,43.38,0,0,1,11.3,49.2ZM4.2,40h0A40.13,40.13,0,0,1,.9,31.8,37,37,0,0,0,4.2,40ZM47.9,18.3V30.2a31.7,31.7,0,0,1-3.1,9.4h0a30,30,0,0,0,3.1-9.4V18.3ZM.5,18.3H47.9V2.7H.5V30.2c.1.6.3,1,.4,1.6a9.36,9.36,0,0,0-.4-1.6Z" fill="none" stroke="#2a3583"/><path d="M3.9,39.9a40.4,40.4,0,0,0,7.3,9.5L24.4,36.6,37.7,49.7a37.37,37.37,0,0,0,7.2-9.9L24.4,20Zm10,3.1a3.76,3.76,0,0,1-3.7-3.7,3.69,3.69,0,0,1,3.7-3.7,3.7,3.7,0,1,1,0,7.4Zm21.5-7.4a3.76,3.76,0,0,1,3.7,3.7A3.69,3.69,0,0,1,35.4,43a3.76,3.76,0,0,1-3.7-3.7A3.69,3.69,0,0,1,35.4,35.6Zm-7-6a3.69,3.69,0,0,1-3.7,3.7A3.76,3.76,0,0,1,21,29.6a3.69,3.69,0,0,1,3.7-3.7A3.76,3.76,0,0,1,28.4,29.6Z" fill="#2a3583" stroke="#2a3583"/><path d="M7.1,6.2h0a.31.31,0,0,1-.2-.1c.1.1.1.1.2.1v7.2h0Zm.2-.1Z" fill="#b51927" stroke="#26337a"/><path d="M.6,2.7V18.4H47.9V2.7ZM11.9,15.1H2.2V14a1.26,1.26,0,0,1,0-1.9V9a1.4,1.4,0,0,1,.4-2.2h.7l.3-.3-.3.3a1,1,0,0,1,.5-.4,3.36,3.36,0,0,1,2.9-.2.77.77,0,0,0,.3.1A3.45,3.45,0,0,1,8.3,6a2.77,2.77,0,0,1,2.4.7h0l.1.1v6.6h.1V6.7h.7A1.4,1.4,0,0,1,12,8.9V12a1.28,1.28,0,0,1,0,1.9v1.2Zm22.5-1.4c-2.8,4.4-8,1.4-8,1.4-4.4-3.8-6.1-1.6-6.1-1.6-2.8,3.3-5.1,3-5.7,2-1.1-.2-1.1-1.1-.5-1.4.8-.4.5-.6.5-.6-2.1-1.7,2.5-7.1,2.5-7.1a1.84,1.84,0,0,1,.9-.6c.6-.1,1-.2,1.3.5.5-.4.6-.6,1.1-.6a.87.87,0,0,1,.9.6s1.8-.9,1.9.4l.3-.1c.5-.1,1.3-.3,1.3.9h.6a.87.87,0,0,1,.6.8c.4,0,.7-.1,1,.1s.4.7.4,1.2a.88.88,0,0,1,.8.9V11c0,.1.2.1.3.2a2.66,2.66,0,0,1,0,1.8c2,3.1,4.1.6,4.1.6,1.1-1.8-.4-2-.4-2C31,11.4,30,13.5,30,13.5c-1.3-3.7,1.8-3.6,1.8-3.6-.2-4.3,2.8-2.8,2.8-2.8-1.9,2.1-.7,3.2-.7,3.2A3,3,0,0,1,34.4,13.7Zm11.8,1.4H36.4V14a1.26,1.26,0,0,1,0-1.9V9a1.4,1.4,0,0,1,.4-2.2h.7a3.27,3.27,0,0,1,3.7-.5v7.2h.1V6.3h0s-2.3-1-3.8.5c1.4-1.5,3.8-.5,3.8-.5a3.35,3.35,0,0,1,3.8.5,3.43,3.43,0,0,0-3.8-.5h0a3.29,3.29,0,0,1,3.8.5v6.6h0V6.7h.7a1.4,1.4,0,0,1,.4,2.2V12a1.28,1.28,0,0,1,0,1.9Z" fill="#c01b2d" stroke="#2a3583"/><path d="M18,13.4c-.1.2-.8,1.4-3.4,2.1C14.6,15.5,17.5,14.7,18,13.4ZM6.8,6.1h0a3.57,3.57,0,0,0-3,.2c-.1,0-.1.1-.2.1A3.75,3.75,0,0,1,6.8,6.1Zm.5,0c-.1,0-.1,0-.2.1h0Zm3.5.6h0c0-.1-.1-.1,0,0a2.87,2.87,0,0,0-2.4-.8,4.4,4.4,0,0,0-1,.2A3.27,3.27,0,0,1,10.8,6.7ZM3.3,13.4h0V6.8h0Zm3.8,0h0v0ZM41.3,6.3h0v7.1h0Zm-3.7,7.1h0V6.8h0ZM17.7,7.5C26.4,5.3,28,12,28,12c.2.3.4.5.6.8v-.1A4.35,4.35,0,0,1,28,12S26.4,5.3,17.7,7.5Z" fill="#2a3583" stroke="#2a3583"/><g fill="#2a3583" stroke="#2a3583"><path d="M16.3 13.2l.9-.7-.8-.2C16.1 12.4 16.1 12.9 16.3 13.2zm3.3-.2a1.94 1.94 0 0 0 1.2-1.5 1.62 1.62 0 0 0-.7-1.4c-.1-.1-.2-.1-.2-.2a1.8 1.8 0 0 1 .9-.4c.4 0 .4.4.7.6s.8-.3 1.3-.1.4.8.9.8c1.2 0 1.2.4 1.2 1 .7 0 .8.2 1 .8l.4-.1c-.2-.7-.4-1.1-1.1-1.1a.93.93 0 0 0-1.2-1c-.5.2-.4-.9-.9-1.1s-.9.5-1.4.2c-.3-.2-.4-.6-.7-.8-.5-.2-1.5.2-1.6.7h0c-1.2-.5-1.3.6-1.2-.1A2.87 2.87 0 0 0 17.9 7c-.2-.3-.5-.5-.7-.8a1.78 1.78 0 0 1 .9-.7c.6-.1.9-.2 1.3.5.5-.4.6-.6 1.2-.6a.87.87 0 0 1 .9.6s1.9-.9 2 .4l.3-.1c.5-.1 1.3-.3 1.3.9h.6a.87.87 0 0 1 .6.8c.4 0 .7-.1 1 .1s.4.7.4 1.2a.88.88 0 0 1 .8.9v.5c0 .1.2.1.3.2a2.74 2.74 0 0 1 0 1.8l.3.1.2-1.1a2.22 2.22 0 0 0-.5-1.1c-.1-.1 0-.7 0-.9 0-.5-.3-.6-.7-.7a1.61 1.61 0 0 0-.6-1.3 2.2 2.2 0 0 1-.8.1 1.06 1.06 0 0 0-.8-.9l-.5.1a1.13 1.13 0 0 0-1.2-1.1l-.4.2a1.39 1.39 0 0 0-.8-.7 1.58 1.58 0 0 0-1.4.4c-.2-.3-.4-.7-.7-.7-.6 0-.7.1-1.2.5-.3-.3-.4-.5-.9-.5a1.79 1.79 0 0 0-1.3.5l-.4.5-.1.1a1.62 1.62 0 0 1-.2-.5 4.57 4.57 0 0 1-.5 1.5c.9-1 2.6 1.7 1 3.7.4-.4 1.3-1.3 1.8-1.2a1.75 1.75 0 0 1 .5.1l.2.2c.1.1.1.3.1.7 0 0 1-.2.8.9 0 .3-.2.7-1.2 1.4l.8.5L21 13zM7.1 13a7 7 0 0 1 3.7 0v.3H8.4l-1.3.5-1.3-.5H3.4V13c0 .1 2.3-.6 3.7 0zm34.3 0a7 7 0 0 1 3.7 0v.3H42.6l-1.3.5L40 13.3H37.5V13c.2.1 2.4-.6 3.9 0z"/></g><path d="M78.7,33c0,4.5,1.1,5.8,4.1,5.8v1.1h-13V38.8c2.5,0,4.1-.8,4.1-5.7V10.4c0-4.4-1.1-5.8-4.1-5.8V3.5H83c10,0,14,5.3,14,10.4,0,6-4.5,9.4-12.8,9.4a46.55,46.55,0,0,1-5.6-.4V33Zm0-11.8a10.93,10.93,0,0,0,4.5.6c5.4,0,8.8-2.9,8.8-7.9,0-3.9-2.1-9.1-8.8-9.1H78.7Zm19.9,5c-.1,10.1,5.9,12.7,8.9,12.7s4.7-1.1,7.9-4.7v1.6c-2.7,3.5-5.3,4.8-9.2,4.8-7,0-12.1-4.9-12.1-11.7S99,16.8,105.3,16.8c5.2,0,10,4.2,9.7,9.4Zm12.2-1.1c.2-5-3.2-7-6-7-3.7,0-5.9,2.8-6.2,7ZM139.3,35c0,2.9.6,3.8,3.8,3.8v1.1H131.2V38.8c3,0,3.9-.7,3.9-2.8V24.3a4.79,4.79,0,0,0-5-5.1c-2.2,0-4.2,1.4-6.4,4.4v11c0,3.4.4,4.3,3.8,4.3V40H115.7V38.8c3,0,3.7-.3,3.7-4.3V21.9c0-2.7-.7-3.3-3.7-3.3V17.5l6.9-.7h1.1v4.5c2.7-3.1,5.2-4.5,8.1-4.5,3.7,0,7.6,2.7,7.6,8.1V35Zm28.5,0c0,2.9.6,3.8,3.8,3.8v1.1H159.7V38.8c3,0,3.9-.7,3.9-2.8V24.3a4.79,4.79,0,0,0-5-5.1c-2.2,0-4.2,1.4-6.4,4.4v11c0,3.4.4,4.3,3.8,4.3V40H144.2V38.8c3,0,3.7-.3,3.7-4.3V21.9c0-2.7-.7-3.3-3.7-3.3V17.5l6.8-.7h1.1v4.5c2.7-3.1,5.2-4.5,8.1-4.5,3.7,0,7.6,2.7,7.6,8.1V35ZM223.2,4.6c-3.1.1-4.3,2.2-4,5.7L221,32.7c.4,4.4,1.1,5.8,4.5,6.2V40h-13V38.8c3-.5,4-1.8,3.7-5.5L214.5,9.8h-.1L202,39.9h-1L188.9,9.8h-.1l-2,22.4c-.3,3.7,1,5.8,4.7,6.5v1.1H180.3v-1c3.7-.5,4.2-2.7,4.6-6.7l2.2-25a7.29,7.29,0,0,0-4.7-2.5V3.5h9.2L203,32.2,214.7,3.5h8.5Z" fill="#fff"/><path d="M229.3,26.2c-.1,10.1,5.9,12.7,8.9,12.7s4.7-1.1,7.9-4.7v1.6c-2.7,3.5-5.3,4.8-9.2,4.8-7,0-12.1-4.9-12.1-11.7s4.9-12.1,11.2-12.1c5.2,0,10,4.2,9.7,9.4Zm12.1-1.1c.2-5-3.2-7-6-7-3.7,0-5.9,2.8-6.2,7Zm29.1,10.4c0,2.5.9,3.3,3.7,3.3v1.1h-13c-9.5,0-13-6.4-13-11.7,0-6.4,4.7-11.4,10.5-11.4,2.4,0,4.7.8,7.5,2.7V5.7c0-3.2-.8-3.9-3-3.9H262V.8l7.5-.8h1.1V35.5Zm-4.3-13.6c-1.8-2.4-4.2-3.8-6.5-3.8-4,0-6.8,3.7-6.8,9.2s2.5,11.6,9.8,11.6c2.5,0,3.5-1,3.5-3.4Zm18.6,13.8c0,2.2.6,3.1,3.7,3.1v1.1H276.2V38.8c3.4,0,4.2-.4,4.2-3.1V21.9c0-3.1-.9-3.4-4.2-3.4V17.4l7.5-.7h1.1v19Zm.6-27.8a2.78,2.78,0,0,1-2.7,2.8,2.86,2.86,0,0,1-2.8-2.8,2.78,2.78,0,0,1,2.8-2.7A2.63,2.63,0,0,1,285.4,7.9Zm23.2,16.8h-1.1c-.9-4.1-3.8-6.7-7.5-6.7-4.4,0-7.5,3.8-7.5,9.3,0,6.2,3.9,11.3,8.4,11.3a10.65,10.65,0,0,0,8.3-4.7v1.7a11.74,11.74,0,0,1-9.9,5c-6.6,0-11.2-4.6-11.2-11.4s5.2-12.5,11.6-12.5c3.3,0,5.2,1.3,6.3,1.3.6,0,1.1-.4,1.5-1.3h1.1v8Zm10.7,11c0,2.2.6,3.1,3.7,3.1v1.1H310.7V38.8c3.4,0,4.2-.4,4.2-3.1V21.9c0-3.1-.9-3.4-4.2-3.4V17.4l7.5-.7h1.1v19Zm.6-27.8a2.78,2.78,0,0,1-2.7,2.8,2.86,2.86,0,0,1-2.8-2.8,2.78,2.78,0,0,1,2.8-2.7A2.57,2.57,0,0,1,319.9,7.9ZM348.1,35c0,2.9.6,3.8,3.8,3.8v1.1H340V38.8c3,0,3.9-.7,3.9-2.8V24.3a4.79,4.79,0,0,0-5-5.1c-2.2,0-4.2,1.4-6.4,4.4v11c0,3.4.4,4.3,3.8,4.3V40H324.5V38.8c3,0,3.7-.3,3.7-4.3V21.9c0-2.7-.7-3.3-3.7-3.3V17.5l6.9-.7h1.1v4.5c2.7-3.1,5.2-4.5,8.1-4.5,3.7,0,7.6,2.7,7.6,8.1V35Zm7.5-8.8c-.1,10.1,5.9,12.7,8.9,12.7s4.7-1.1,7.9-4.7v1.6c-2.7,3.5-5.3,4.8-9.2,4.8-7,0-12.1-4.9-12.1-11.7s4.9-12.1,11.2-12.1c5.2,0,10,4.2,9.7,9.4Zm12.2-1.1c.2-5-3.2-7-6-7-3.7,0-5.9,2.8-6.2,7Z" fill="#fff"/></svg>